<svg xmlns="http://www.w3.org/2000/svg" viewBox="0 0 515 514" width="515" height="514"><defs></defs><g transform="matrix(1,0,0,1,-694,-178)">
<rect fill="#000000" x="694" y="178" width="515" height="515"/>
<g transform="matrix(1,0,0,1,694,178)">
	<g>
		<path d="M85.62999725341777,292.15 C79.80000305175761,283.69000854492185 77.36000061035136,270.0100097656251 72.47000122070293,242.17999267578134 C67.52999877929668,214.07000732421884 60.11999893188457,172.7899932861329 53.86000061035136,138.50000000000009 C51.65000152587871,126.40000152587899 49.599998474120895,115.04000091552743 49.290000915527145,113.25000000000009 C48.9900016784666,111.45999908447274 48.40000152587871,110.00000000000009 47.9900016784666,110.00000000000009 C47.58000183105449,110.00000000000009 45.95999908447246,111.69000244140632 44.38999938964824,113.75000000000009 C42.81999969482402,115.80999755859385 38.15000152587871,121.3199996948243 33.9999999999998,126.00000000000009 C15.289999961852828,147.0899963378907 12.779999732970992,150.91000366210946 10.960000038146774,161.11000061035165 C9.899999618530073,166.97999572753915 10.109999656677047,169.0899963378907 13.449999809264938,187.00000000000009 C17.430000305175582,208.27000427246105 18.969999313354293,216.7899932861329 27.450000762939254,264.0000000000001 C35.31999969482402,307.85000610351574 50.687500000000036,369.109375 50.687500000000036,369.109375M68.79999999999998,379.79999999999995 C70.24143627050326,374.71910020487724 101.79999999999984,306.70000000000005 101.79999999999984,306.70000000000005 C101.79999999999984,306.70000000000005 102.24999999999999,307.625 112.75000000000003,310.75 C118.08999633789065,312.0899963378906 126.41000366210918,312.4 161.13999938964824,312.4 C161.13999938964824,312.4 208.69999999999973,313.0799999999999 208.69999999999973,313.0799999999999 C208.69999999999973,313.0799999999999 195.99999999999963,381.14 195.99999999999963,381.14 C195.99999999999963,381.14 131.58999633789043,380.85000610351574 131.58999633789043,380.85000610351574 C100.19000244140604,380.769989013672 68.10937500000006,382.2343749999999 68.79999999999998,379.79999999999995 ZM112.4999999999998,284.82998657226574 C101.30999755859357,278.95001220703136 96.91000366210918,272.3900146484376 94.47000122070293,257.9200134277345 C92.94000244140604,248.85000610351568 89.55000305175761,230.27999877929696 78.87999725341777,172.50000000000009 C66.30000305175761,104.33999633789071 65.81999969482402,99.04000091552743 71.51000213623027,90.83000183105476 C73.4800033569334,88.00000000000009 76.38999938964824,85.5500030517579 79.94000244140605,83.75000000000009 C79.94000244140605,83.75000000000009 85.36000061035136,81.00000000000009 85.36000061035136,81.00000000000009 C85.36000061035136,81.00000000000009 166.92999267578105,81.00000000000009 166.92999267578105,81.00000000000009 C166.92999267578105,81.00000000000009 248.4999999999998,81.00000000000009 248.4999999999998,81.00000000000009 C248.4999999999998,81.00000000000009 254.55999755859355,83.87000274658212 254.55999755859355,83.87000274658212 C262.6300048828123,87.69000244140634 268.1300048828123,94.62999725341804 270.89999389648415,104.50000000000009 C272.14999389648415,108.91999816894541 275.9999999999998,126.54000091552743 281.3900146484373,152.50000000000009 C283.3399963378904,161.8500061035157 287.2399902343748,180.4700012207032 290.0599975585935,193.86999511718759 C290.0599975585935,193.86999511718759 295.190002441406,218.25000000000009 295.190002441406,218.25000000000009 C295.190002441406,218.25000000000009 287.7099914550779,233.86999511718759 287.7099914550779,233.86999511718759 C283.5899963378904,242.4700012207032 277.3900146484373,255.9199981689454 273.940002441406,263.779998779297 C270.4800109863279,271.6300048828126 267.17001342773415,277.8900146484376 266.5799865722654,277.69000244140636 C265.5100097656248,277.33999633789074 251.11000061035136,247.0500030517579 229.5500030517576,199.83000183105477 C216.58999633789045,171.44000244140634 211.6199951171873,163.64999389648446 202.80999755859355,157.96000671386727 C193.5399932861326,151.96000671386727 189.6199951171873,151.07000732421884 171.33999633789043,150.77000427246102 C162.460006713867,150.61999511718759 154.9199981689451,150.75999450683602 154.58999633789043,151.0899963378907 C153.94000244140605,151.72999572753915 218.00999755859354,287.5100219726562 216.1999999999998,287.79999999999995 C214.41000671386698,288.09000854492183 188.07000732421878,289.0950012207031 162.50000000000003,289.125 C117.13999938964847,289.17498779296875 116.40000152587871,286.8800048828126 112.4999999999998,284.82998657226574 C112.4999999999998,284.82998657226574 112.4999999999998,284.82998657226574 112.4999999999998,284.82998657226574 Z" fill="#b5b5b4"/>
	</g>
	<g>
		<path d="M450.4971819724682,449.44219008156665 C450.4971819724682,449.44219008156665 410.7460004028817,372.85756545836716 410.7460004028817,372.85756545836716 C407.9875288145938,374.0210247233325 405.1036250843631,374.93003809959015 402.1300048799999,375.55999756 C393.5100097699999,377.39001465 275.5400085399999,377.67001343 268.44000243999994,375.88000488 C259.7799987799999,373.70001221 257.20001220999995,370.11999512 243.61000060999993,341.5 C236.83000182999993,327.20001221 229.11999999999992,312.49998779000003 229.11999999999992,313.2 C229.11999999999992,313.41185172 213.98999938999992,394.85000610000003 212.3099914599999,403.83999634 C207.73999938999992,428.39001465 208.34000548999992,437.26000977 215.0700012199999,444.33999634 C218.4399963399999,447.89001465 222.2300048799999,449.89001465 227.5999999999999,450.97000122000003 C229.88999328999992,451.42999268 272.8999938999999,451.73001099 334.4999999999999,451.6499939 C334.4999999999999,451.6499939 446.4999999999999,451.5 446.4999999999999,451.5 C446.4999999999999,451.5 450.4971819724682,449.44219008156665 450.4971819724682,449.44219008156665 ZM467.36394342541877,434.821957677001 C470.6066559018851,427.97146164736535 472.83358842379084,417.1908438654816 476.42999267999994,397.5 C479.44000243999994,381 482.33999633999997,364.79998779 482.8800048799999,361.5 C483.4100036599999,358.20001221 485.2799987799999,347.3999939 487.0199890099999,337.5 C488.7600097699999,327.60000610000003 491.67999267999994,310.95001221 493.4999999999999,300.5 C495.32998656999996,290.04998779 498.48001098999987,272.04998779 500.5100097699999,260.5 C506.2900085399999,227.52000427000002 505.3500061,223.82000732 485.2699890099999,200.88000488 C478.79998778999993,193.49000549000002 472.04998778999993,185.67999268 470.2799987799999,183.52999878 C468.5100097699999,181.36999512 466.82998656999996,179.83000183000001 466.57000731999995,180.1000061 C466.29998778999993,180.36999512 463.6000061,195.19999695 460.57000731999995,213.05000305000002 C457.54998778999993,230.8999939 453.5199890099999,254.05000305000002 451.6199951199999,264.5 C449.72000122,274.95001221 446.97000122,290.48001099 445.4999999999999,299 C437.48001098999987,345.64001465 437.1700134299999,346.94000244 431.92999267999994,355.10998535 C430.86750291892463,356.7655713219223 429.7024091659614,358.34470813365164 428.444840934666,359.84041656962614 C428.444840934662,359.8404165696225 467.3639434254136,434.82195767698136 467.36394342541877,434.821957677001 ZM304.25125122,169.765625 C306.0412597699999,178.70562744 307.8012390099999,186.015625 308.1512451199999,186.015625 C308.51126098999987,186.015625 310.24124145999997,183.20562744 311.99124145999997,179.765625 C318.6312561,166.78562927000002 326.0712585399999,159.18562317 337.21124267999994,154.02561951 C337.21124267999994,154.02561951 343.5312499999999,151.10562134 343.5312499999999,151.10562134 C343.5312499999999,151.10562134 322.2812499999999,151.06562805000002 322.2812499999999,151.06562805000002 C305.9312438999999,151.02561951 301.0312499999999,151.30561829 301.01126098999987,152.265625 C301.00125122,152.95562744 302.46124267999994,160.82562256 304.25125122,169.765625 ZM282.0312499999999,356.98562622000003 C282.0312499999999,357.67562866000003 300.72125243999994,358.015625 339.25125122,358.015625 C339.25125122,358.015625 344.59124755999994,358.015625 344.59124755999994,358.015625 C391.47125243999994,358.02563477 399.72125243999994,358.02563477 405.6512451199999,354.31561279 C407.1312561,353.38562012 408.47125243999994,352.22561646 410.23126220999995,350.77563477 C418.75125122,343.77563477 418.85125731999995,343.42562866000003 429.5212402299999,282.015625 C430.9012451199999,274.03561401 432.71124267999994,263.9156189 433.5312499999999,259.515625 C440.01126098999987,224.81562805000002 446.4212646499999,184.87562561000001 446.7812499999999,176.90562439 C447.2712402299999,165.9156189 445.76126098999987,161.49562073 439.8212585399999,156.48562622 C433.61123656999996,151.25563049000002 432.09124755999994,151.015625 404.5512390099999,151.015625 C404.5512390099999,151.015625 379.00125122,151.015625 379.00125122,151.015625 C379.00125122,151.015625 376.6312561,156.265625 376.6312561,156.265625 C375.33123778999993,159.15562439 294.4312438999999,329.60562134 290.0312499999999,338.95562744 C285.6312561,348.30563354000003 282.0312499999999,356.42562866000003 282.0312499999999,356.98562622000003 Z" fill="#666e76"/>
	</g>
</g></g></svg>